# xmcd CD database file
#
# Track frame offsets:
#	150
#	24760
#	36109
#	46919
#	60913
#	75532
#	89013
#	101895
#	113751
#	130555
#	142621
#	155212
#	166670
#	178550
#	190471
#	205369
#	219075
#	229909
#	243322
#	256837
#	269735
#	282538
#
# Disc length: 3944 seconds
#
# Revision: 0
# Processed by: cddbd v1.4PL0 Copyright (c) Steve Scherf et al.
# Submitted via: CDex 1.50Beta5
#
DISCID=2c0f6616
DTITLE=Vaious Artists - Boogie Woogie 1940/50
DYEAR=1900
DGENRE=Jazz
TTITLE0=Rocket Boogie Part 1&2
TTITLE1=J.J.Boogie
TTITLE2=Bear Den Boogie
TTITLE3=Rythm Boogie
TTITLE4=The Rocks
TTITLE5=Chicago Breakdown
TTITLE6=Rockin'Boogie
TTITLE7=Vine Street Boogie
TTITLE8=J.P. Boogie
TTITLE9=Screwy Boogie
TTITLE10=Roomin' House Boogie
TTITLE11=Camille's Boogie
TTITLE12=The Fat Man
TTITLE13=Fatstuff Boogie
TTITLE14=Chicken Shack Boogie
TTITLE15=Hamp's Boogie Woogie n°2
TTITLE16=Basie Boogie
TTITLE17=Back Bay Boogie
TTITLE18=Hawk's Boogie
TTITLE19=Boogie Woogie Cocktail
TTITLE20=Banyard Boogie
TTITLE21=Change O'Key Boogie take 2
EXTD=
EXTT0=
EXTT1=
EXTT2=
EXTT3=
EXTT4=
EXTT5=
EXTT6=
EXTT7=
EXTT8=
EXTT9=
EXTT10=
EXTT11=
EXTT12=
EXTT13=
EXTT14=
EXTT15=
EXTT16=
EXTT17=
EXTT18=
EXTT19=
EXTT20=
EXTT21=
PLAYORDER=
